<svg xmlns="http://www.w3.org/2000/svg" viewBox="0 0 64 64" role="img" aria-labelledby="title">
  <title id="title">Barrow County Cruisers — Georgia Peach</title>
  <defs>
    <linearGradient id="fruit" x1=".14" y1="0" x2=".88" y2="1">
      <stop offset="0" stop-color="#ffe08a"/>
      <stop offset=".48" stop-color="#ff9a47"/>
      <stop offset="1" stop-color="#f06445"/>
    </linearGradient>
    <linearGradient id="leaf" x1="0" y1="0" x2="1" y2="1">
      <stop stop-color="#9bc96d"/>
      <stop offset="1" stop-color="#347b50"/>
    </linearGradient>
  </defs>

  <!-- Georgia peach and leaf on a transparent canvas. -->
  <path d="M32 25c-3.8-5-10.4-4.5-13.2.2-3.9 6.4-.5 16.2 6.1 19.8 3 1.6 5.5.7 7.1-1.2 1.6 1.9 4.1 2.8 7.1 1.2 6.6-3.6 10-13.4 6.1-19.8C42.4 20.5 35.8 20 32 25Z"
        fill="url(#fruit)" stroke="#7f3d36" stroke-width="1.5" stroke-linejoin="round"/>
  <path d="M31.5 23c-1.4-5 2.5-9.2 8.7-9.5-.6 5.8-3.7 9.3-8.7 9.5Z" fill="url(#leaf)" stroke="#245d3d" stroke-width="1" stroke-linejoin="round"/>
  <path d="M33 22c2-3.2 4.4-5.3 7.2-6.5" fill="none" stroke="#c6df8e" stroke-width=".9" stroke-linecap="round"/>
  <path d="M23 28c2.1-2.1 4.5-2.8 6.9-2.2" fill="none" stroke="#fff0c9" stroke-opacity=".72" stroke-width="1.5" stroke-linecap="round"/>

</svg>
